<svg width="45" height="45" viewBox="0 0 45 45" fill="none" xmlns="http://www.w3.org/2000/svg">
<circle cx="22.5" cy="22.5" r="22.5" fill="#F2C94C"/>
<path d="M33.4968 14H11.8332C11.3723 14 11 14.3723 11 14.8332V31.4975C11 31.9584 11.3723 32.3307 11.8332 32.3307H33.4968C33.9577 32.3307 34.33 31.9584 34.33 31.4975V14.8332C34.33 14.3723 33.9577 14 33.4968 14ZM18.1344 17.7495C19.0535 17.7495 19.8008 18.4968 19.8008 19.4159C19.8008 20.335 19.0535 21.0823 18.1344 21.0823C17.2153 21.0823 16.468 20.335 16.468 19.4159C16.468 18.4968 17.2153 17.7495 18.1344 17.7495ZM31.5153 29.1307C31.4774 29.1625 31.4294 29.18 31.3799 29.1801H13.9475C13.8329 29.1801 13.7392 29.0864 13.7392 28.9718C13.7392 28.9223 13.7574 28.8755 13.7887 28.8364L18.2229 23.5768C18.2958 23.4882 18.4286 23.4778 18.5172 23.5507C18.525 23.5585 18.5354 23.5663 18.5432 23.5768L21.1314 26.6492L25.248 21.7671C25.3209 21.6786 25.4537 21.6682 25.5422 21.7411C25.55 21.7489 25.5604 21.7567 25.5682 21.7671L31.5465 28.839C31.6142 28.925 31.6038 29.0577 31.5153 29.1307Z" fill="white"/>
</svg>
